<?xml version="1.0" encoding="UTF-8"?>
<svg id="Layer_1" xmlns="http://www.w3.org/2000/svg" version="1.1" viewBox="0 0 595.28 841.89">
  <!-- Generator: Adobe Illustrator 30.2.1, SVG Export Plug-In . SVG Version: 2.1.1 Build 1)  -->
  <defs>
    <style>
      .st0 {
        fill: #010101;
      }
    </style>
  </defs>
  <path class="st0" d="M332.99,435.5h36.49c.44,0,.79-.35.79-.79v-9.97c0-.44-.35-.79-.79-.79h-25.65v-11.1h18.13c.44,0,.79-.35.79-.79v-10.05c0-.44-.35-.79-.79-.79h-18.13v-14.32h25.49c.44,0,.79-.36.79-.79v-9.97c0-.44-.35-.79-.79-.79h-36.33c-.44,0-.79.35-.79.79v58.58c0,.44.35.79.79.79"/>
  <path class="st0" d="M385.34,435.5h9.18c.44,0,.79-.35.79-.79v-37.98l19.13,38.33c.13.27.41.44.71.44h9.29c.44,0,.79-.35.79-.79v-58.58c0-.44-.35-.79-.79-.79h-9.18c-.44,0-.79.35-.79.79v33.69l-16.83-34.04c-.13-.27-.41-.44-.71-.44h-11.59c-.44,0-.79.35-.79.79v58.58c0,.44.35.79.79.79"/>
  <path class="st0" d="M287.1,435.27c.15.15.35.23.56.23h19.51c.21,0,.41-.08.56-.23l9.96-9.87c.15-.15.23-.35.23-.56v-22.84c0-.44-.35-.79-.79-.79h-17.21c-.44,0-.79.36-.79.79v10.06c0,.44.35.79.79.79h6.36v7.67l-3.37,3.43h-10.99l-3.37-3.43v-30.5l3.12-3.12h11.49l3.12,3.12v3.02c0,.44.35.79.79.79h10.05c.44,0,.79-.35.79-.79v-7.43c0-.21-.08-.41-.23-.56l-9.48-9.48c-.15-.15-.35-.23-.56-.23h-20.39c-.21,0-.41.08-.56.23l-9.48,9.48c-.15.15-.23.35-.23.56v39.23c0,.21.09.41.23.56l9.87,9.87h.02Z"/>
  <path class="st0" d="M209.1,402.75v-26.62c0-.44-.35-.79-.79-.79h-9.82c-.44,0-.79.35-.79.79v20.77l-8.27,6.57-8.11-6.56v-20.78c0-.44-.36-.79-.79-.79h-9.98c-.44,0-.79.35-.79.79v26.62c0,.24.11.46.29.61l13.56,11.16v20.19c0,.44.35.79.79.79h10.05c.44,0,.79-.35.79-.79v-20.19l13.57-11.16c.18-.15.29-.37.29-.61"/>
  <path class="st0" d="M233.01,435.27c.15.15.35.23.56.23h18.96c.21,0,.41-.08.56-.23l9.4-9.4c.15-.15.23-.35.23-.56v-49.18c0-.44-.35-.79-.79-.79h-9.82c-.44,0-.79.35-.79.79v44.37l-3.44,3.44h-9.51l-3.44-3.44v-44.37c0-.44-.35-.79-.79-.79h-9.97c-.44,0-.79.35-.79.79v49.18c0,.21.08.41.23.56l9.4,9.4Z"/>
  <path class="st0" d="M230.84,368.66h24.42c.44,0,.79-.35.79-.79v-5.03c0-.44-.36-.79-.79-.79h-24.42c-.44,0-.79.35-.79.79v5.03c0,.44.35.79.79.79"/>
</svg>